<?xml version="1.0" encoding="utf-8"?>
<!-- Generator: Adobe Illustrator 16.0.0, SVG Export Plug-In . SVG Version: 6.00 Build 0)  -->
<!DOCTYPE svg PUBLIC "-//W3C//DTD SVG 1.1//EN" "http://www.w3.org/Graphics/SVG/1.1/DTD/svg11.dtd">
<svg version="1.1" id="_x31_" xmlns="http://www.w3.org/2000/svg" xmlns:xlink="http://www.w3.org/1999/xlink" x="0px" y="0px"
	 width="377.411px" height="159.159px" viewBox="0 0 377.411 159.159" enable-background="new 0 0 377.411 159.159"
	 xml:space="preserve">
<g>
	<path fill-rule="evenodd" clip-rule="evenodd" fill="#2E3192" d="M248.197,56.639c3.803,4.004,5.87,9.492,3.803,14.756
		c-7.192,17.055-26.373,28.251-45.471,30.847c-1.736,0.371-3.639,0.815-5.126-0.371l18.85-33.441c0.826-0.89,1.901-0.667,2.728,0
		c1.406,1.631,3.225,3.337,2.232,5.635c-2.232,6.006-6.531,11.567-9.177,17.648c6.118-0.593,11.079-4.598,16.122-8.009
		c5.622-5.561,12.814-11.27,10.665-19.426c-1.571-4.079-6.366-5.784-10.913-5.858c-7.523,0.667-14.22,3.263-20.834,6.08
		c-1.819,0.148-4.3,0.593-5.705-0.742c-0.744-0.741-1.322-1.482-1.405-2.447c0.083-2.892,4.299-3.263,6.531-4.449
		C221.658,53.08,238.11,46.851,248.197,56.639L248.197,56.639z M260.928,53.451c-4.216-6.6-12.153-9.714-19.842-11.049
		c-11.244-1.26-21.909,0.964-31.169,5.191c-3.389,1.334-7.109,3.855-6.944,7.637c-0.248,1.409,1.736,1.631,2.811,1.261
		c6.779-3.04,13.808-5.488,21.413-6.748c9.095-1.706,19.098-0.223,24.803,6.896c3.969,5.116,3.39,12.976,0.744,18.538
		c-5.539,9.862-16.37,19.501-27.779,23.654c-6.861,2.966-14.137,5.117-22.156,5.709c-1.571-0.074-4.217,0.371-4.961-1.112
		l20.008-36.259c-0.414-0.742-1.488-0.964-2.397-1.112c-3.721,0.222-7.028,2.001-9.095,5.042l-20.421,35.37l-0.248,3.188
		c1.488,3.263,5.622,2.818,8.928,3.041c20.669-0.89,39.933-5.562,54.814-18.686C259.523,82.888,270.105,67.835,260.928,53.451z"/>
	<path fill-rule="evenodd" clip-rule="evenodd" fill="#2E3192" d="M188.505,76.437c0.91,0.519,0.744,2.002,0.166,2.669
		c-5.87,7.711-17.858,3.708-27.2,4.746l-5.953,9.639l0.827,0.519l21,0.371c2.977,0.742,4.63,3.56,4.961,6.081
		c-0.331,0.222,0,0.742-0.331,1.038H142.62l-0.578-0.89c4.96-8.157,9.425-16.684,15.129-24.396L188.505,76.437L188.505,76.437z
		 M199.418,50.929c0.91,0.593,1.241,1.557,0.744,2.373c-1.653,2.892-5.291,4.004-8.268,5.117L176.6,58.641
		c-1.488,2.744-3.472,5.339-4.794,8.157c6.365,1.187,14.137-2.373,17.279,4.449c0,1.038,0.91,2.15,0,3.041l-0.579,0.37h-29.763
		c-1.24-0.445-0.331-1.706,0-2.373L171.226,51.3c0.909-1.038,2.646-0.222,3.803-0.667L199.418,50.929L199.418,50.929z
		 M197.186,41.512l-29.929-0.148c-1.405,0.148-2.646,0.815-3.803,1.557l-34.31,59.098c-0.992,2.521-3.72,4.449-3.72,7.341
		c0.413,0.667,0.909,1.78,1.984,1.928c12.814,0.964,26.373,0.371,39.684,0.519c5.374,0.371,9.755-1.779,13.063-5.709
		c0.331-0.667,0.744-1.78,0-2.448l-40.097-0.222c-0.662,0.148-1.406-0.222-1.406-0.89l6.614-11.196l24.389-40.56l1.736-1.779
		l29.185-0.148l0.992-0.742c0.082-1.26-0.083-2.521-0.579-3.559C200.41,43.144,198.756,41.957,197.186,41.512z"/>
	<path fill-rule="evenodd" clip-rule="evenodd" fill="#2E3192" d="M129.971,76.733c0.661,0.815-0.331,1.928-0.827,2.669
		c-5.374,7.489-14.716,3.633-23.232,4.671c-5.291,7.489-9.177,15.72-14.22,23.505c-2.811,2.966-6.862,4.523-11.161,4.079
		c-0.909-0.519-1.157-1.409-0.744-2.15l18.188-30.772c0.827-1.039,1.984-2.077,3.39-2.151L129.971,76.733L129.971,76.733z
		 M152.542,51.3c0.992,0.223,0.744,1.631,0.248,2.151c-6.614,10.158-21.578,3.484-32.574,5.709
		c-1.984,2.447-3.389,5.117-4.712,7.786c5.622,1.483,13.89-1.927,16.205,4.301c0.248,1.038,0.496,2.521-0.331,3.411
		c-9.259,0.222-20.255,0.371-29.598-0.222v-1.409l12.732-20.984c0.827-1.187,2.397-0.964,3.721-1.261L152.542,51.3L152.542,51.3z
		 M151.219,41.883l-38.94-0.519c-2.729,0.148-5.208,2.077-6.532,4.227c-11.492,19.131-22.239,38.632-33.896,57.688
		c-0.909,1.706-1.736,3.782-0.827,5.71c0.662,1.112,2.067,1.557,3.142,2.15c1.654,0.445,3.142-0.593,3.968-1.78L111.7,52.412
		c0.414-1.557,2.314-2.298,3.803-2.892l38.031-0.148c1.157-0.667,1.653-1.854,1.405-3.188
		C154.939,44.182,152.872,42.773,151.219,41.883z"/>
</g>
<polygon fill-rule="evenodd" clip-rule="evenodd" fill="#2E3192" points="201.279,1.688 185.522,2.196 174.622,2.667 167.079,3.084 
	159.985,3.751 154.311,4.474 145.184,5.791 137.215,7.054 131.424,7.924 126.101,8.809 116.792,10.767 109.003,12.778 
	103.126,14.686 95.812,16.979 86.489,20.235 78.604,23.127 72.162,26.194 65.071,29.831 59.209,32.881 55.712,34.677 52.452,36.772 
	49.206,38.714 45.292,41.377 41.116,44.854 37.015,48.685 33.403,52.34 30.683,56.04 27.973,61.067 25.793,66.841 24.342,72.324 
	23.818,77.472 24.103,81.841 25.167,87.238 27.339,93.254 29.602,97.424 32.395,101.489 35.822,105.558 39.732,109.515 
	42.502,111.982 45.496,114.47 53.069,120.111 56.62,122.519 60.582,124.787 66.569,128.088 81.691,134.626 81.691,150.875 
	67.772,145.996 55.095,140.931 42.603,134.773 34.875,130.176 27.66,125.422 22.556,121.484 18.423,117.89 13.123,112.661 
	6.823,105.323 3.885,100.002 1.908,94.958 0.706,89.673 0.102,84.359 0,79.798 0.291,75.579 1.333,70.62 3.313,65.054 5.758,60.361 
	9.179,55.43 13.331,50.501 17.231,46.718 22.061,42.207 28.219,37.378 34.018,33.332 39.437,30.448 44.286,27.873 49.195,25.453 
	54.176,22.951 58.874,20.885 63.051,19.123 70.426,16.701 77.943,14.157 85.468,11.896 87.703,11.189 89.715,10.791 91.555,10.348 
	98.353,8.996 104.191,7.691 110.214,6.438 118.824,5.102 132.337,3.311 139.981,2.694 148.672,1.883 157.346,1.275 163.66,1.188 
	169.8,0.976 175.885,0.879 187.329,0.794 201.335,0 "/>
<polygon fill-rule="evenodd" clip-rule="evenodd" fill="#2E3192" points="158.494,157.684 167.506,157.433 179.84,156.968 
	188.373,156.555 196.399,155.895 202.82,155.181 213.146,153.879 222.163,152.629 228.714,151.769 234.737,150.895 245.27,148.958 
	254.082,146.969 260.732,145.083 269.007,142.816 279.554,139.597 288.476,136.737 295.765,133.705 303.788,130.109 
	310.419,127.092 314.376,125.318 318.066,123.246 321.738,121.325 326.167,118.692 330.891,115.255 335.531,111.467 
	339.618,107.853 342.695,104.195 345.761,99.225 348.228,93.515 349.869,88.094 350.462,83.004 350.14,78.684 348.937,73.348 
	346.479,67.399 343.918,63.276 340.758,59.257 336.881,55.234 332.457,51.322 329.323,48.881 325.936,46.421 317.367,40.844 
	313.35,38.463 308.867,36.221 302.092,32.957 275.666,23.157 275.626,7.993 300.731,15.251 315.075,20.258 329.208,26.347 
	337.953,30.893 346.115,35.592 351.89,39.486 356.566,43.04 362.564,48.21 369.69,55.465 373.015,60.727 375.252,65.714 
	376.612,70.939 377.295,76.194 377.411,80.704 377.082,84.875 375.902,89.778 373.662,95.282 370.896,99.922 367.025,104.798 
	362.329,109.67 357.916,113.411 352.451,117.873 345.483,122.647 338.921,126.647 332.791,129.499 327.304,132.045 321.75,134.438 
	316.115,136.912 310.799,138.955 306.073,140.697 297.729,143.091 289.224,145.607 280.71,147.841 278.181,148.542 275.906,148.935 
	273.823,149.374 266.131,150.71 259.526,152 252.711,153.24 242.97,154.56 227.681,156.332 219.033,156.941 209.199,157.743 
	199.386,158.344 192.242,158.43 185.295,158.64 178.41,158.735 165.462,158.819 158.497,159.159 "/>
<path fill="#2E3192" d="M100.46,145.198v7.448h-4.781v-20.06h7.911c1.761,0,3.11,0.19,4.047,0.566
	c0.934,0.377,1.771,1.049,2.503,2.022c0.737,0.967,1.103,2.156,1.103,3.571c0,0.987-0.195,1.951-0.586,2.894
	c-0.392,0.938-0.948,1.681-1.661,2.218c-0.717,0.536-1.409,0.897-2.082,1.073c-0.672,0.176-1.721,0.267-3.149,0.267H100.46
	L100.46,145.198z M100.294,141.55h3.06c1.164,0,1.981-0.271,2.453-0.808c0.471-0.537,0.708-1.159,0.708-1.851
	c0-0.813-0.266-1.46-0.788-1.942c-0.526-0.48-1.318-0.717-2.387-0.717h-3.045V141.55L100.294,141.55z M120.032,132.586h-4.69v13.724
	c0,0.758-0.075,1.284-0.236,1.59c-0.155,0.302-0.401,0.563-0.742,0.772c-0.336,0.211-0.798,0.312-1.384,0.312
	c-0.667,0-1.464-0.075-2.398-0.23v3.893c1.139,0.205,2.197,0.311,3.175,0.311c2.232,0,3.838-0.501,4.811-1.5
	c0.978-1.003,1.464-2.518,1.464-4.56V132.586L120.032,132.586z M137.709,136.996l-3.999,1.334c-1.63-4.813-7.59-1.184-5.693,0.647
	c0.347,0.334,1.134,0.622,2.357,0.867c2.047,0.412,3.547,0.828,4.5,1.249c0.948,0.422,1.751,1.099,2.403,2.037
	c0.652,0.938,0.973,1.981,0.973,3.14c0,1.811-0.697,3.376-2.092,4.7c-1.394,1.324-3.466,1.986-6.209,1.986
	c-2.057,0-3.807-0.472-5.251-1.404c-1.445-0.938-2.398-2.327-2.859-4.168l4.349-0.983c0.492,1.871,1.851,2.804,4.088,2.804
	c1.074,0,1.881-0.205,2.408-0.622c0.532-0.416,0.792-0.912,0.792-1.489c0-0.593-0.241-1.044-0.717-1.37
	c-0.482-0.32-1.41-0.627-2.779-0.913c-2.558-0.526-4.378-1.249-5.467-2.167c-1.088-0.912-1.63-2.252-1.63-4.017
	c0-1.781,0.647-3.286,1.946-4.51c1.299-1.225,3.06-1.841,5.283-1.841C134.052,132.276,136.581,133.85,137.709,136.996
	L137.709,136.996z M157.502,140.05l-4.92,0.312c-0.07-2.834-1.174-4.249-3.311-4.249c-2.448,0-3.671,2.182-3.671,6.541
	c0,2.518,0.331,4.224,0.999,5.121c0.667,0.897,1.594,1.345,2.793,1.345c1.937,0,3.125-1.265,3.557-3.792l4.554,0.28
	c-0.296,2.398-1.188,4.224-2.683,5.473c-1.495,1.25-3.321,1.876-5.488,1.876c-2.653,0-4.81-0.918-6.471-2.749
	c-1.665-1.835-2.492-4.363-2.492-7.599c0-3.025,0.802-5.508,2.407-7.434c1.61-1.932,3.802-2.899,6.586-2.899
	C154.182,132.276,156.896,134.869,157.502,140.05z"/>
</svg>
