<?xml version="1.0" encoding="utf-8"?>
<!-- Generator: Adobe Illustrator 16.0.0, SVG Export Plug-In . SVG Version: 6.00 Build 0)  -->
<!DOCTYPE svg PUBLIC "-//W3C//DTD SVG 1.1//EN" "http://www.w3.org/Graphics/SVG/1.1/DTD/svg11.dtd">
<svg version="1.1" xmlns="http://www.w3.org/2000/svg" xmlns:xlink="http://www.w3.org/1999/xlink" x="0px" y="0px"
	 width="197.802px" height="227.363px" viewBox="0 0 197.802 227.363" enable-background="new 0 0 197.802 227.363"
	 xml:space="preserve">
<g id="Шар_1">
	<g>
		<g>
			<rect fill="#071C2C" width="197.802" height="199.441"/>
			<g>
				<path fill="#FFFFFF" d="M61.585,115.71h-0.038c-7.09,0-10.448,6.114-10.448,11.864c0,6.7,3.992,11.707,10.129,11.707
					c5.822,0,10.265-4.513,10.265-11.968C71.494,120.328,67.235,115.71,61.585,115.71z M61.796,137.907
					c-3.746,0-5.584-5.073-5.584-11.082c0-5.604,1.886-9.733,4.839-9.733h0.034c3.355,0,5.258,4.304,5.258,11.144
					C66.344,134.595,64.475,137.907,61.796,137.907z M96.122,136.535c-0.665-0.774-1.333-1.792-2.46-3.701
					c-0.997-1.624-2.232-4.033-2.688-5.087c2.288-0.983,4.059-2.721,4.059-5.713c0-2.16-0.88-3.677-2.258-4.624
					c-1.345-0.878-2.901-1.245-5.478-1.245h-9.452v1.064c2.333,0.244,2.578,0.947,2.578,0.947v18.666c0,0-0.283,0.713-2.72,0.896
					v1.089h9.778v-1.089c-2.361-0.183-2.645-0.896-2.645-0.896v-7.861c0,0,1.263-0.075,2.018,0.229
					c0.879,1.865,2.421,5.176,3.271,6.551c1.375,2.253,2.572,3.214,6.632,3.386c0.459,0.036,0.887,0.036,1.279,0.036l0.169-1.029
					C97.567,137.907,96.9,137.383,96.122,136.535z M88.715,126.715c-0.748,0.639-1.591,0.895-2.933,0.895h-0.947v-10.101h1.589
					c1.792,0,3.809,1.351,3.809,5.053C90.234,124.462,89.738,125.877,88.715,126.715z M115.636,117.229
					c2.575,0.316,2.749,0.71,2.749,0.71s-3.569,11.179-4.837,14.711h-0.066c-1.309-3.85-4.955-14.474-4.955-14.474
					s0.124-0.667,2.343-0.947v-1.064h-9.676v1.064c1.951,0.211,2.55,0.975,2.55,0.975s5.186,14.591,7.341,21.013h1.608
					c2.487-7.132,7.79-21.277,7.79-21.277s0.656-0.43,2.701-0.71v-1.064h-7.548V117.229z M141.937,136.288
					c-0.75,0.849-1.766,1.129-3.642,1.129h-3.494v-9.503h2.012c2.832,0,3.104,0.115,3.646,2.649h1.189v-6.897h-1.189
					c-0.543,2.461-0.854,2.604-3.646,2.604h-2.012v-8.688h2.549c2.112,0,3.035,0.319,3.52,0.956c0.535,0.6,0.884,1.552,1.242,2.821
					l1.196-0.172c-0.133-1.975-0.314-4.45-0.354-5.022h-15.208v1.064c2.22,0.211,2.542,0.908,2.542,0.908v18.726
					c0,0-0.322,0.613-2.927,0.875v1.089h16.415c0.271-1.031,0.91-4.168,1.126-5.509l-1.212-0.273
					C143.128,134.523,142.532,135.545,141.937,136.288z M37.455,117.269c2.252,0.141,3.423,0.652,3.423,0.652v13.352h-0.146
					l-11.5-15.108h-6.037v1.104c1.263,0.225,2.239,1.512,3.368,2.82c0,1.375-0.018,16.991-0.018,16.991s-1.091,0.544-2.931,0.657
					v1.089h7.944v-1.089c-2.254-0.144-3.424-0.657-3.424-0.657l-0.039-15.015h0.11l12.526,17.116h1.733v-21.261
					c0,0,1.097-0.547,2.928-0.652v-1.104h-7.939V117.269z M165.418,116.165v1.104c2.26,0.141,3.412,0.652,3.412,0.652v13.352h-0.138
					l-11.504-15.108h-6.027v1.104c1.257,0.225,2.235,1.512,3.364,2.82c0,1.375-0.02,16.991-0.02,16.991s-1.092,0.544-2.925,0.657
					v1.089h7.938v-1.089c-2.262-0.144-3.42-0.657-3.42-0.657l-0.045-15.015h0.114l12.523,17.116h1.729v-21.261
					c0,0,1.092-0.547,2.926-0.652v-1.104H165.418z"/>
				<g>
					<path fill="#FFFFFF" d="M18.92,153.519c0,0,6.009,0.437,12.317,0.437v-0.875C24.929,153.081,18.92,153.519,18.92,153.519z"/>
					<path fill="#FFFFFF" d="M174.31,153.519c0,0-6.005-0.438-12.318-0.438v0.875C168.305,153.956,174.31,153.519,174.31,153.519z"
						/>
				</g>
				<g>
					<path fill="#FFFFFF" d="M96.04,41.62c16.615,4.865,29.263,19.012,31.917,36.46c-17.833-0.283-33.183-10.752-40.458-25.874
						c-0.161-0.392-0.335-0.773-0.53-1.157c-2.748-5.571-8.467-9.43-15.112-9.43h-1.173c-0.086,0.023-0.175,0.052-0.256,0.082
						c-3.18,0.252-6.099,1.417-8.534,3.203v56.856h38.616c-16.619-4.855-29.264-19.003-31.92-36.452
						c17.836,0.273,33.191,10.752,40.464,25.864c0.157,0.401,0.334,0.78,0.527,1.167c2.742,5.576,8.476,9.421,15.107,9.421h1.175
						c0.088-0.024,0.179-0.043,0.265-0.066c3.173-0.266,6.088-1.423,8.526-3.204V41.62H96.04z"/>
					<path fill="#FFFFFF" d="M122.177,68.055c-1.008,0-1.821,0.808-1.821,1.817c0,1.012,0.813,1.825,1.821,1.825
						c0.999,0,1.816-0.813,1.816-1.825C123.994,68.862,123.176,68.055,122.177,68.055z"/>
					<path fill="#FFFFFF" d="M78.264,71.697c1.012,0,1.824-0.813,1.824-1.825c0-0.996-0.812-1.817-1.824-1.817
						c-1,0-1.813,0.821-1.813,1.817C76.452,70.883,77.264,71.697,78.264,71.697z"/>
				</g>
				<g>
					<g>
						<path fill="#FFFFFF" d="M180.566,110.833h-1.825v-0.652h4.442v0.652h-1.834v5.332h-0.783V110.833z"/>
						<path fill="#FFFFFF" d="M188.819,113.539c-0.036-0.842-0.097-1.852-0.097-2.589h-0.015c-0.222,0.683-0.453,1.447-0.755,2.268
							l-1.058,2.912h-0.587l-0.984-2.86c-0.279-0.854-0.51-1.609-0.679-2.32h-0.013c-0.023,0.744-0.066,1.736-0.122,2.647
							l-0.158,2.568h-0.736l0.419-5.984h0.985l1.021,2.891c0.249,0.739,0.448,1.389,0.605,2.011h0.009
							c0.17-0.604,0.372-1.257,0.648-2.011l1.06-2.891h0.992l0.375,5.984h-0.767L188.819,113.539z"/>
					</g>
				</g>
				<g>
					<path fill="#FFFFFF" d="M38.248,149.642v1.485h1.346v0.705h-1.346v2.796c0,0.639,0.184,0.999,0.701,0.999
						c0.251,0,0.438-0.026,0.553-0.061l0.035,0.701c-0.172,0.081-0.464,0.126-0.83,0.126c-0.433,0-0.792-0.135-1.013-0.391
						c-0.263-0.273-0.361-0.736-0.361-1.35v-2.821h-0.802v-0.705h0.802v-1.247L38.248,149.642z"/>
					<path fill="#FFFFFF" d="M40.651,148.708h0.933v3.225h0.034c0.137-0.267,0.375-0.5,0.668-0.659
						c0.275-0.156,0.607-0.265,0.958-0.265c0.691,0,1.808,0.424,1.808,2.213v3.073h-0.94v-2.977c0-0.826-0.313-1.534-1.196-1.534
						c-0.607,0-1.092,0.422-1.262,0.944c-0.048,0.13-0.069,0.262-0.069,0.447v3.119h-0.933V148.708z"/>
					<path fill="#FFFFFF" d="M47.092,153.874c0.024,1.274,0.833,1.803,1.771,1.803c0.677,0,1.08-0.118,1.432-0.273l0.158,0.676
						c-0.331,0.151-0.896,0.315-1.713,0.315c-1.595,0-2.541-1.034-2.541-2.592c0-1.57,0.917-2.794,2.417-2.794
						c1.693,0,2.138,1.483,2.138,2.427c0,0.198-0.017,0.346-0.028,0.438H47.092z M49.839,153.208
						c0.018-0.601-0.24-1.526-1.289-1.526c-0.956,0-1.37,0.874-1.44,1.526H49.839z"/>
					<path fill="#FFFFFF" d="M54.553,151.127l0.684,2.618c0.147,0.585,0.286,1.12,0.38,1.645h0.035
						c0.119-0.512,0.287-1.067,0.46-1.633l0.84-2.63h0.788l0.803,2.578c0.191,0.625,0.341,1.173,0.46,1.685h0.03
						c0.087-0.512,0.23-1.06,0.398-1.67l0.735-2.593h0.924l-1.659,5.167h-0.857l-0.788-2.469c-0.179-0.577-0.333-1.092-0.456-1.702
						h-0.027c-0.131,0.622-0.28,1.16-0.468,1.711l-0.831,2.46h-0.858l-1.561-5.167H54.553z"/>
					<path fill="#FFFFFF" d="M64.851,156.294l-0.08-0.657h-0.029c-0.292,0.402-0.843,0.775-1.581,0.775
						c-1.043,0-1.586-0.736-1.586-1.483c0-1.256,1.117-1.939,3.105-1.931v-0.111c0-0.411-0.115-1.188-1.169-1.188
						c-0.477,0-0.978,0.146-1.347,0.39l-0.215-0.623c0.434-0.277,1.053-0.457,1.701-0.457c1.582,0,1.97,1.08,1.97,2.111v1.931
						c0,0.45,0.019,0.887,0.085,1.244H64.851z M64.706,153.654c-1.02-0.021-2.19,0.163-2.19,1.168c0,0.604,0.407,0.89,0.887,0.89
						c0.674,0,1.1-0.427,1.256-0.863c0.021-0.093,0.047-0.201,0.047-0.291V153.654z"/>
					<path fill="#FFFFFF" d="M67.386,151.127l1.125,3.055c0.122,0.335,0.25,0.747,0.338,1.057h0.019
						c0.099-0.31,0.204-0.712,0.324-1.082l1.03-3.029h0.996l-1.408,3.673c-0.674,1.784-1.137,2.684-1.776,3.251
						c-0.453,0.403-0.917,0.553-1.151,0.599l-0.238-0.787c0.238-0.079,0.544-0.224,0.821-0.458c0.26-0.211,0.583-0.568,0.794-1.044
						c0.043-0.102,0.072-0.177,0.072-0.23c0-0.052-0.023-0.127-0.066-0.247l-1.91-4.756H67.386z"/>
					<path fill="#FFFFFF" d="M75.373,149.67c0.011,0.32-0.223,0.576-0.591,0.576c-0.331,0-0.567-0.256-0.567-0.576
						c0-0.331,0.244-0.584,0.585-0.584C75.15,149.086,75.373,149.339,75.373,149.67z M74.333,156.294v-5.167h0.937v5.167H74.333z"/>
					<path fill="#FFFFFF" d="M77.955,149.642v1.485H79.3v0.705h-1.346v2.796c0,0.639,0.182,0.999,0.705,0.999
						c0.251,0,0.427-0.026,0.546-0.061l0.046,0.701c-0.184,0.081-0.471,0.126-0.837,0.126c-0.437,0-0.79-0.135-1.009-0.391
						c-0.271-0.273-0.372-0.736-0.372-1.35v-2.821h-0.798v-0.705h0.798v-1.247L77.955,149.642z"/>
					<path fill="#FFFFFF" d="M83.75,149.642v1.485h1.346v0.705H83.75v2.796c0,0.639,0.178,0.999,0.706,0.999
						c0.242,0,0.423-0.026,0.54-0.061l0.052,0.701c-0.187,0.081-0.479,0.126-0.844,0.126c-0.43,0-0.786-0.135-1.008-0.391
						c-0.266-0.273-0.367-0.736-0.367-1.35v-2.821h-0.801v-0.705h0.801v-1.247L83.75,149.642z"/>
					<path fill="#FFFFFF" d="M89.008,156.294l-0.07-0.657h-0.039c-0.285,0.402-0.835,0.775-1.57,0.775
						c-1.056,0-1.586-0.736-1.586-1.483c0-1.256,1.108-1.939,3.11-1.931v-0.111c0-0.411-0.119-1.188-1.175-1.188
						c-0.485,0-0.985,0.146-1.345,0.39l-0.212-0.623c0.42-0.277,1.047-0.457,1.692-0.457c1.577,0,1.959,1.08,1.959,2.111v1.931
						c0,0.45,0.033,0.887,0.098,1.244H89.008z M88.872,153.654c-1.021-0.021-2.195,0.163-2.195,1.168c0,0.604,0.412,0.89,0.895,0.89
						c0.667,0,1.101-0.427,1.247-0.863c0.035-0.093,0.054-0.201,0.054-0.291V153.654z"/>
					<path fill="#FFFFFF" d="M91.163,155.329c0.275,0.183,0.769,0.374,1.237,0.374c0.686,0,1.012-0.337,1.012-0.767
						c0-0.445-0.271-0.701-0.963-0.951c-0.935-0.331-1.376-0.85-1.376-1.461c0-0.834,0.677-1.516,1.795-1.516
						c0.513,0,0.979,0.144,1.263,0.318l-0.229,0.683c-0.202-0.129-0.581-0.302-1.058-0.302c-0.561,0-0.868,0.328-0.868,0.701
						c0,0.437,0.308,0.627,0.983,0.883c0.895,0.342,1.348,0.792,1.348,1.557c0,0.908-0.701,1.546-1.921,1.546
						c-0.571,0-1.095-0.135-1.463-0.354L91.163,155.329z"/>
					<path fill="#FFFFFF" d="M96.649,149.642v1.485h1.347v0.705h-1.347v2.796c0,0.639,0.184,0.999,0.71,0.999
						c0.244,0,0.42-0.026,0.54-0.061l0.047,0.701c-0.19,0.081-0.476,0.126-0.836,0.126c-0.437,0-0.795-0.135-1.024-0.391
						c-0.262-0.273-0.362-0.736-0.362-1.35v-2.821h-0.795v-0.705h0.795v-1.247L96.649,149.642z"/>
					<path fill="#FFFFFF" d="M99.505,153.874c0.025,1.274,0.836,1.803,1.772,1.803c0.672,0,1.08-0.118,1.43-0.273l0.164,0.676
						c-0.335,0.151-0.904,0.315-1.723,0.315c-1.594,0-2.544-1.034-2.544-2.592c0-1.57,0.926-2.794,2.431-2.794
						c1.684,0,2.13,1.483,2.13,2.427c0,0.198-0.016,0.346-0.025,0.438H99.505z M102.263,153.208
						c0.007-0.601-0.245-1.526-1.303-1.526c-0.953,0-1.368,0.874-1.443,1.526H102.263z"/>
					<path fill="#FFFFFF" d="M104.198,155.329c0.277,0.183,0.771,0.374,1.24,0.374c0.684,0,1.006-0.337,1.006-0.767
						c0-0.445-0.268-0.701-0.966-0.951c-0.93-0.331-1.368-0.85-1.368-1.461c0-0.834,0.679-1.516,1.786-1.516
						c0.529,0,0.983,0.144,1.272,0.318l-0.237,0.683c-0.204-0.129-0.576-0.302-1.054-0.302c-0.555,0-0.87,0.328-0.87,0.701
						c0,0.437,0.315,0.627,0.986,0.883c0.892,0.342,1.356,0.792,1.356,1.557c0,0.908-0.705,1.546-1.934,1.546
						c-0.567,0-1.089-0.135-1.451-0.354L104.198,155.329z"/>
					<path fill="#FFFFFF" d="M111.862,149.67c0.009,0.32-0.226,0.576-0.595,0.576c-0.338,0-0.57-0.256-0.57-0.576
						c0-0.331,0.248-0.584,0.589-0.584C111.636,149.086,111.862,149.339,111.862,149.67z M110.817,156.294v-5.167h0.936v5.167
						H110.817z"/>
					<path fill="#FFFFFF" d="M113.309,152.524c0-0.536-0.011-0.969-0.041-1.396h0.829l0.059,0.846h0.023
						c0.254-0.481,0.85-0.965,1.707-0.965c0.711,0,1.829,0.424,1.829,2.2v3.086h-0.949v-2.977c0-0.837-0.303-1.528-1.191-1.528
						c-0.613,0-1.1,0.427-1.261,0.956c-0.041,0.117-0.066,0.277-0.066,0.437v3.112h-0.938V152.524z"/>
					<path fill="#FFFFFF" d="M121.525,156.294v-7.199h1.012l2.309,3.639c0.529,0.849,0.949,1.598,1.293,2.34l0.019-0.009
						c-0.082-0.962-0.103-1.835-0.103-2.962v-3.008h0.872v7.199h-0.943l-2.275-3.662c-0.508-0.8-0.986-1.615-1.355-2.4l-0.03,0.015
						c0.058,0.905,0.079,1.775,0.079,2.975v3.073H121.525z"/>
					<path fill="#FFFFFF" d="M133.184,153.667c0,1.91-1.314,2.746-2.565,2.746c-1.397,0-2.482-1.029-2.482-2.667
						c0-1.724,1.137-2.737,2.566-2.737C132.183,151.008,133.184,152.088,133.184,153.667z M129.088,153.72
						c0,1.128,0.655,1.982,1.571,1.982c0.899,0,1.568-0.837,1.568-2.015c0-0.861-0.438-1.98-1.547-1.98
						S129.088,152.734,129.088,153.72z"/>
					<path fill="#FFFFFF" d="M134.366,152.734c0-0.61-0.009-1.125-0.046-1.606h0.821l0.043,1.005h0.038
						c0.239-0.683,0.796-1.124,1.439-1.124c0.099,0,0.172,0.009,0.257,0.026v0.891c-0.095-0.026-0.187-0.039-0.319-0.039
						c-0.66,0-1.132,0.505-1.264,1.203c-0.023,0.141-0.04,0.291-0.04,0.447v2.758h-0.93V152.734z"/>
					<path fill="#FFFFFF" d="M138.496,151.127l0.688,2.618c0.143,0.585,0.286,1.12,0.382,1.645h0.03
						c0.115-0.512,0.291-1.067,0.463-1.633l0.851-2.63h0.778l0.81,2.578c0.189,0.625,0.339,1.173,0.458,1.685h0.031
						c0.083-0.512,0.224-1.06,0.392-1.67l0.736-2.593h0.927l-1.663,5.167h-0.854l-0.794-2.469c-0.172-0.577-0.328-1.092-0.465-1.702
						h-0.012c-0.131,0.622-0.286,1.16-0.462,1.711l-0.833,2.46h-0.863l-1.558-5.167H138.496z"/>
					<path fill="#FFFFFF" d="M148.795,156.294l-0.082-0.657h-0.027c-0.283,0.402-0.841,0.775-1.579,0.775
						c-1.047,0-1.582-0.736-1.582-1.483c0-1.256,1.115-1.939,3.107-1.931v-0.111c0-0.411-0.114-1.188-1.173-1.188
						c-0.48,0-0.979,0.146-1.345,0.39l-0.207-0.623c0.415-0.277,1.036-0.457,1.693-0.457c1.575,0,1.964,1.08,1.964,2.111v1.931
						c0,0.45,0.02,0.887,0.078,1.244H148.795z M148.657,153.654c-1.027-0.021-2.189,0.163-2.189,1.168
						c0,0.604,0.406,0.89,0.887,0.89c0.668,0,1.098-0.427,1.245-0.863c0.033-0.093,0.058-0.201,0.058-0.291V153.654z"/>
					<path fill="#FFFFFF" d="M151.33,151.127l1.131,3.055c0.12,0.335,0.244,0.747,0.334,1.057h0.025
						c0.089-0.31,0.2-0.712,0.321-1.082l1.025-3.029h1.004l-1.425,3.673c-0.665,1.784-1.123,2.684-1.767,3.251
						c-0.46,0.403-0.914,0.553-1.155,0.599l-0.226-0.787c0.226-0.079,0.542-0.224,0.815-0.458c0.26-0.211,0.584-0.568,0.789-1.044
						c0.044-0.102,0.08-0.177,0.08-0.23c0-0.052-0.018-0.127-0.066-0.247l-1.909-4.756H151.33z"/>
				</g>
			</g>
		</g>
		<g>
			<g>
				<g>
					<rect x="0.085" y="207.57" fill="#ED1C24" width="197.631" height="19.793"/>
					<rect x="24.296" y="207.574" fill="#FFFFFF" width="34.646" height="19.789"/>
					<rect x="32.738" y="207.574" fill="#23407C" width="17.75" height="19.789"/>
				</g>
			</g>
		</g>
	</g>
</g>
<g id="Шар_2">
</g>
</svg>
