<?xml version="1.0" encoding="utf-8"?>
<!-- Generator: Adobe Illustrator 16.0.0, SVG Export Plug-In . SVG Version: 6.00 Build 0)  -->
<!DOCTYPE svg PUBLIC "-//W3C//DTD SVG 1.1//EN" "http://www.w3.org/Graphics/SVG/1.1/DTD/svg11.dtd">
<svg version="1.1" id="Layer_1" xmlns="http://www.w3.org/2000/svg" xmlns:xlink="http://www.w3.org/1999/xlink" x="0px" y="0px"
	 width="447.279px" height="236.671px" viewBox="0 0 447.279 236.671" enable-background="new 0 0 447.279 236.671"
	 xml:space="preserve">
<path fill-rule="evenodd" clip-rule="evenodd" fill="#262626" d="M307.89,181.149v55.319h-12.766v-55.319H307.89z M215.017,181.149
	v55.319h12.766v-55.319H215.017z M209.005,223.702h-42.553v-29.989h42.553v-12.767h-55.319v55.522h55.319V223.702z M289.113,181.149
	h-55.319v12.766h21.276v42.554h12.767v-42.554h21.276V181.149z M389.099,109.461v53.195h12.275l29.033-34.426v34.426h12.275v-53.195
	h-12.275v0.238l-29.033,34.508v-34.747H389.099L389.099,109.461z M405.564,101.862h20.654v6.041h-20.654V101.862L405.564,101.862z
	 M371.299,150.575v-28.838h-28.644v28.838H371.299L371.299,150.575z M330.38,109.461h53.194v53.39H330.38V109.461L330.38,109.461z
	 M206.843,150.575v12.276h-53.195v-53.39h53.195v12.275h-40.919v28.838H206.843L206.843,150.575z M312.648,129.921v-8.184h-28.643
	v8.184H312.648L312.648,129.921z M324.924,109.461v32.735h-40.919v20.46h-12.276v-53.195H324.924L324.924,109.461z M265.883,121.737
	h-20.46v40.919h-12.275v-40.919h-20.459v-12.275h53.195V121.737z M447.279,223.905H311.833v12.766h135.446V223.905z
	 M151.519,223.905H20.861v-77.394h4.609v-3.153h15.767v3.153h3.881v10.915h7.277v2.669h12.614V88.537h5.094v-3.638h4.851v-5.094
	h14.554V32.504h1.213v47.301h1.698v5.094h4.851v3.638h4.609v67.677h12.128v3.882h0.485v3.153h6.064V31.048h3.638V27.41h25.467v3.638
	h3.396v46.088h8.005V57.489h11.158v-9.703h14.312v9.703h11.158v19.648h8.005V0H0v235.777h0.522v0.894h150.997
	C151.519,232.416,151.519,228.161,151.519,223.905z"/>
</svg>
